# xmcd
#
# Track frame offsets: 
#        182
#        16387
#        31592
#        45862
#        60615
#        74982
#        89180
#        101947
#        114847
#        128957
#        141080
#        155250
#        168475
#        181990
#        194657
#        210065
#        221472
#        235880
#        251297
#        264502
#        278700
#        293027
#        307340
#
# Disc length: 4298 seconds
#
# Revision: 1
# Processed by: cddbd v1.5.2PL0 Copyright (c) Steve Scherf et al.
# Submitted via: ExactAudioCopy v0.99pb5
#
DISCID=5110c817
DTITLE=King Oliver - 1929-1930 [CD2]
DYEAR=2001
DGENRE=Jazz
TTITLE0=West End Blues
TTITLE1=I've Got That Thing
TTITLE2=Freakish Light Blues
TTITLE3=Call Of The Freaks
TTITLE4=The Trumpet's Prayer
TTITLE5=Can I Tell You
TTITLE6=My Good Man Sam
TTITLE7=Everybody Does It In Hawaii
TTITLE8=Frankie And Johnny
TTITLE9=Edna
TTITLE10=Boogie Woogie
TTITLE11=Mule Face Blues
TTITLE12=Struggle Bunny
TTITLE13=Don't You Think I Love You
TTITLE14=Olga
TTITLE15=Shake It And Break It
TTITLE16=Stingaree Blues
TTITLE17=What's The Use Of Living Without Love
TTITLE18=You Were Only Passing Time With Me
TTITLE19=Nelson Stomp
TTITLE20=Nelson Stomp
TTITLE21=Nelson Stomp
TTITLE22=Stealing Love
EXTD=YEAR: 2001
EXTT0=
EXTT1=
EXTT2=
EXTT3=
EXTT4=
EXTT5=
EXTT6=
EXTT7=
EXTT8=
EXTT9=
EXTT10=
EXTT11=
EXTT12=
EXTT13=
EXTT14=
EXTT15=
EXTT16=
EXTT17=
EXTT18=
EXTT19=
EXTT20=
EXTT21=
EXTT22=
PLAYORDER=
